@startuml
'https://plantuml.com/class-diagram

class User

class StartConversationDataAccessObject


interface StartConversationDataAccessInterface
interface StartConversationInputBoundary
interface StartConversationOutputBoundary
class StartConversationOutputData
class StartConversationInputData
class StartConversationInteractor




StartConversationInteractor -|> StartConversationInputBoundary
StartConversationDataAccessObject -|> StartConversationDataAccessInterface

StartConversationInteractor o--> StartConversationOutputBoundary
StartConversationInteractor --> StartConversationInputData
StartConversationInteractor --> StartConversationOutputData
StartConversationInteractor o--> StartConversationDataAccessInterface


StartConversationDataAccessObject o--> User


Interface StartConversationDataAccessInterface{
boolean existsByName(String name)
void sendKey()
void setConversationState()
}

class StartConversationDataAccessObject{
HushMap<String, User> userlist
---
boolean existsByName(String name)
void sendKey()
void setConversationState()
}

Interface StartConversationInputBoundary{
void execute(StartConversationInputData sti)
}

class StartConversationInteractor{
SCOutputBoundary scPresenter
SCDataAccessInterface scDAO
---
void execute(StartConversationInputData sti)
}

Interface StartConversationOutputBoundary{
void prepareSuccessView(StartConversationOutputData sto)
void prepareFailView(String error)
}

class StartConversationInputData{
-String startBy
-String sendTo
---
String getStartBy()
String getSendTo()
}

class StartConversationOutputData{
-String message
-String Key
---
String getMessage()
String getKey()
}


User o-- User

class User {
String name
String email
String password
HushMap<User, boolean> conversations
---
String getName()
String getEmail()
String getPassword()
void setConversation()

}




@enduml